<svg width="24" height="24" viewBox="0 0 24 24" fill="none" xmlns="http://www.w3.org/2000/svg">
<path d="M12 18C12.2967 18 12.5867 18.088 12.8334 18.2528C13.08 18.4176 13.2723 18.6519 13.3858 18.926C13.4994 19.2001 13.5291 19.5017 13.4712 19.7926C13.4133 20.0836 13.2704 20.3509 13.0607 20.5607C12.8509 20.7704 12.5836 20.9133 12.2926 20.9712C12.0017 21.0291 11.7001 20.9994 11.426 20.8858C11.1519 20.7723 10.9176 20.58 10.7528 20.3334C10.588 20.0867 10.5 19.7967 10.5 19.5C10.5 19.1022 10.658 18.7206 10.9393 18.4393C11.2206 18.158 11.6022 18 12 18Z" fill="white"/>
<path d="M12 10.5C12.2967 10.5 12.5867 10.588 12.8334 10.7528C13.08 10.9176 13.2723 11.1519 13.3858 11.426C13.4994 11.7001 13.5291 12.0017 13.4712 12.2926C13.4133 12.5836 13.2704 12.8509 13.0607 13.0607C12.8509 13.2704 12.5836 13.4133 12.2926 13.4712C12.0017 13.5291 11.7001 13.4994 11.426 13.3858C11.1519 13.2723 10.9176 13.08 10.7528 12.8334C10.588 12.5867 10.5 12.2967 10.5 12C10.5 11.6022 10.658 11.2206 10.9393 10.9393C11.2206 10.658 11.6022 10.5 12 10.5Z" fill="white"/>
<path d="M12 3C12.2967 3 12.5867 3.08797 12.8334 3.25279C13.08 3.41762 13.2723 3.65188 13.3858 3.92597C13.4994 4.20006 13.5291 4.50166 13.4712 4.79263C13.4133 5.08361 13.2704 5.35088 13.0607 5.56066C12.8509 5.77044 12.5836 5.9133 12.2926 5.97118C12.0017 6.02906 11.7001 5.99935 11.426 5.88582C11.1519 5.77229 10.9176 5.58003 10.7528 5.33336C10.588 5.08668 10.5 4.79667 10.5 4.5C10.5 4.10217 10.658 3.72064 10.9393 3.43934C11.2206 3.15803 11.6022 3 12 3Z" fill="white"/>
</svg>
